<svg xmlns="http://www.w3.org/2000/svg" viewBox="0 0 400 400">
  <!-- Background Circle -->
  <defs>
    <linearGradient id="bgGradient" x1="0%" y1="0%" x2="100%" y2="100%">
      <stop offset="0%" style="stop-color:#667eea;stop-opacity:1" />
      <stop offset="100%" style="stop-color:#764ba2;stop-opacity:1" />
    </linearGradient>
    
    <linearGradient id="accentGradient" x1="0%" y1="0%" x2="100%" y2="100%">
      <stop offset="0%" style="stop-color:#f093fb;stop-opacity:1" />
      <stop offset="100%" style="stop-color:#f5576c;stop-opacity:1" />
    </linearGradient>
  </defs>
  
  <!-- Main Circle Background -->
  <circle cx="200" cy="200" r="190" fill="url(#bgGradient)"/>
  
  <!-- AI Circuit Pattern Background -->
  <g opacity="0.15">
    <circle cx="200" cy="200" r="160" fill="none" stroke="white" stroke-width="1"/>
    <circle cx="200" cy="200" r="140" fill="none" stroke="white" stroke-width="1"/>
    <circle cx="200" cy="200" r="120" fill="none" stroke="white" stroke-width="1"/>
    <line x1="200" y1="40" x2="200" y2="80" stroke="white" stroke-width="1.5"/>
    <line x1="200" y1="320" x2="200" y2="360" stroke="white" stroke-width="1.5"/>
    <line x1="40" y1="200" x2="80" y2="200" stroke="white" stroke-width="1.5"/>
    <line x1="320" y1="200" x2="360" y2="200" stroke="white" stroke-width="1.5"/>
  </g>
  
  <!-- Coach/Robot Head -->
  <g transform="translate(200, 180) scale(1.4)">
    <!-- Head -->
    <rect x="-45" y="-50" width="90" height="85" rx="12" fill="white" opacity="0.95"/>
    
    <!-- Eyes (AI-inspired) -->
    <rect x="-30" y="-30" width="20" height="20" rx="3" fill="url(#accentGradient)"/>
    <rect x="10" y="-30" width="20" height="20" rx="3" fill="url(#accentGradient)"/>
    
    <!-- Eye glow effect -->
    <rect x="-28" y="-28" width="16" height="4" rx="2" fill="white" opacity="0.6"/>
    <rect x="12" y="-28" width="16" height="4" rx="2" fill="white" opacity="0.6"/>
    
    <!-- Mouth/Smile indicator line -->
    <path d="M -20 5 Q 0 15 20 5" fill="none" stroke="url(#accentGradient)" stroke-width="3" stroke-linecap="round"/>
    
    <!-- AI Antenna/Signal -->
    <line x1="0" y1="-50" x2="0" y2="-65" stroke="white" stroke-width="3" stroke-linecap="round"/>
    <circle cx="0" cy="-70" r="5" fill="url(#accentGradient)"/>
    <circle cx="0" cy="-70" r="8" fill="none" stroke="url(#accentGradient)" stroke-width="1.5" opacity="0.5"/>
  </g>
  
  <!-- Shoulder/Body suggestion -->
  <g transform="translate(200, 250) scale(1.4)">
    <path d="M -55 0 Q -50 20 -45 35 L -20 35 L -20 0 Z" fill="white" opacity="0.9"/>
    <path d="M 55 0 Q 50 20 45 35 L 20 35 L 20 0 Z" fill="white" opacity="0.9"/>
    <rect x="-20" y="0" width="40" height="35" fill="white" opacity="0.95"/>
  </g>
  
  <!-- Neural Network Pattern -->
  <g opacity="0.2">
    <circle cx="100" cy="100" r="3" fill="white"/>
    <circle cx="300" cy="100" r="3" fill="white"/>
    <circle cx="100" cy="300" r="3" fill="white"/>
    <circle cx="300" cy="300" r="3" fill="white"/>
    <line x1="100" y1="100" x2="200" y2="150" stroke="white" stroke-width="0.5"/>
    <line x1="300" y1="100" x2="200" y2="150" stroke="white" stroke-width="0.5"/>
    <line x1="100" y1="300" x2="200" y2="250" stroke="white" stroke-width="0.5"/>
    <line x1="300" y1="300" x2="200" y2="250" stroke="white" stroke-width="0.5"/>
  </g>
  
  <!-- Pulse/Activity rings around -->
  <g opacity="0.3">
    <circle cx="200" cy="200" r="185" fill="none" stroke="white" stroke-width="2" stroke-dasharray="10 5"/>
  </g>
</svg>